<svg data-v-423bf9ae=""
  xmlns="http://www.w3.org/2000/svg" viewBox="0 0 252.4077507610182 60" class="font">  <!---->  <!---->  <!---->
  <g data-v-423bf9ae="" id="4b90fb24-705b-496b-a7e7-0bd3de367e96" fill="white" transform="matrix(5.825242610575063,0,0,5.825242610575063,-2.2135941734250366,-29.3592230119201)">
    <path d="M7.20 7L7.43 7.50L1.71 10.18L7.43 12.85L7.20 13.36L0.38 10.18L7.20 7ZM16.59 5.24L16.59 5.24Q16.49 6.55 16.49 7.59L16.49 7.59L16.49 7.59Q16.49 8.23 16.53 8.60L16.53 8.60L16.21 8.60L16.21 8.60Q15.88 6.97 15.18 6.26L15.18 6.26L15.18 6.26Q14.49 5.56 13.64 5.56L13.64 5.56L13.45 5.56L13.45 5.56Q13.08 5.56 12.90 5.62L12.90 5.62L12.90 5.62Q12.73 5.68 12.66 5.86L12.66 5.86L12.66 5.86Q12.60 6.03 12.60 6.44L12.60 6.44L12.60 10.02L12.74 10.02L12.74 10.02Q13.47 10.02 13.99 9.45L13.99 9.45L13.99 9.45Q14.50 8.88 14.64 8.18L14.64 8.18L14.97 8.18L14.97 8.18Q14.92 8.76 14.92 9.49L14.92 9.49L14.92 10.16L14.92 10.16Q14.92 10.88 15.01 12.15L15.01 12.15L14.69 12.15L14.69 12.15Q14.56 11.35 14.04 10.83L14.04 10.83L14.04 10.83Q13.51 10.30 12.74 10.30L12.74 10.30L12.60 10.30L12.60 13.52L12.60 13.52Q12.60 14.11 12.72 14.38L12.72 14.38L12.72 14.38Q12.84 14.64 13.15 14.73L13.15 14.73L13.15 14.73Q13.47 14.83 14.15 14.83L14.15 14.83L14.15 15.15L14.15 15.15Q12.26 15.11 11.27 15.11L11.27 15.11L11.27 15.11Q10.61 15.11 9.44 15.13L9.44 15.13L8.76 15.15L8.76 14.87L8.76 14.87Q9.21 14.84 9.41 14.76L9.41 14.76L9.41 14.76Q9.62 14.67 9.69 14.43L9.69 14.43L9.69 14.43Q9.76 14.20 9.76 13.66L9.76 13.66L9.76 6.72L9.76 6.72Q9.76 6.19 9.68 5.95L9.68 5.95L9.68 5.95Q9.60 5.71 9.41 5.63L9.41 5.63L9.41 5.63Q9.21 5.54 8.76 5.52L8.76 5.52L8.76 5.24L8.76 5.24Q10.39 5.28 13.66 5.28L13.66 5.28L13.66 5.28Q15.72 5.28 16.59 5.24L16.59 5.24ZM22.82 5.04L22.82 5.04Q23.72 5.04 24.36 5.28L24.36 5.28L24.36 5.28Q25.00 5.52 25.54 5.95L25.54 5.95L25.54 5.95Q25.69 6.08 25.82 6.08L25.82 6.08L25.82 6.08Q25.96 6.08 26.04 5.87L26.04 5.87L26.04 5.87Q26.12 5.67 26.17 5.24L26.17 5.24L26.49 5.24L26.49 5.24Q26.43 6.23 26.43 8.74L26.43 8.74L26.11 8.74L26.11 8.74Q26.01 7.63 25.75 6.99L25.75 6.99L25.75 6.99Q25.48 6.34 24.82 5.89L24.82 5.89L24.82 5.89Q24.53 5.70 24.14 5.59L24.14 5.59L24.14 5.59Q23.76 5.47 23.38 5.47L23.38 5.47L23.38 5.47Q22.37 5.47 21.75 6.18L21.75 6.18L21.75 6.18Q21.13 6.89 20.87 7.97L20.87 7.97L20.87 7.97Q20.61 9.04 20.61 10.22L20.61 10.22L20.61 10.22Q20.61 12.66 21.20 13.86L21.20 13.86L21.20 13.86Q21.80 15.06 22.86 15.06L22.86 15.06L22.86 15.06Q23.30 15.06 23.55 14.90L23.55 14.90L23.55 14.90Q23.84 14.69 23.84 14.20L23.84 14.20L23.84 12.80L23.84 12.80Q23.84 12.10 23.73 11.77L23.73 11.77L23.73 11.77Q23.62 11.44 23.33 11.32L23.33 11.32L23.33 11.32Q23.04 11.20 22.43 11.17L22.43 11.17L22.43 10.89L22.43 10.89Q23.38 10.93 25.10 10.93L25.10 10.93L25.10 10.93Q26.54 10.93 27.26 10.89L27.26 10.89L27.26 11.17L27.26 11.17Q27.01 11.20 26.89 11.28L26.89 11.28L26.89 11.28Q26.77 11.37 26.73 11.61L26.73 11.61L26.73 11.61Q26.68 11.84 26.68 12.38L26.68 12.38L26.68 15.15L26.40 15.15L26.40 15.15Q26.39 14.85 26.28 14.60L26.28 14.60L26.28 14.60Q26.17 14.35 25.97 14.35L25.97 14.35L25.97 14.35Q25.68 14.35 25.02 14.67L25.02 14.67L25.02 14.67Q23.62 15.34 22.65 15.34L22.65 15.34L22.65 15.34Q20.05 15.34 18.72 14.03L18.72 14.03L18.72 14.03Q17.39 12.71 17.39 10.28L17.39 10.28L17.39 10.28Q17.39 8.74 18.08 7.55L18.08 7.55L18.08 7.55Q18.77 6.36 20.01 5.70L20.01 5.70L20.01 5.70Q21.24 5.04 22.82 5.04L22.82 5.04ZM35.29 5.04L31.49 15.34L31.02 15.34L34.83 5.04L35.29 5.04ZM36.89 7L36.65 7.50L42.38 10.18L36.65 12.85L36.89 13.36L43.71 10.18L36.89 7Z"></path>
  </g>
</svg>