<?xml version="1.0" standalone="no"?>
<svg xmlns="http://www.w3.org/2000/svg" width="90" height="90" viewBox="100 100 312 312" data-svgdocument="" id="_0A0_ptjjO_BlCCVWP4lwY" class="fl-svgdocument" x="0" y="0" style="overflow: visible;"
  xmlns:xlink="http://www.w3.org/1999/xlink">
  <path id="_2OQXrb-baTKgQgU92oE3x" d="M497,430.182c0,37.271-30.215,67.486-67.486,67.486H70.486C33.215,497.668,3,467.452,3,430.182V71.153  C3,33.882,33.215,3.667,70.486,3.667h359.027C466.785,3.667,497,33.882,497,71.153V430.182z" stroke="none" fill="#f1faee" transform="matrix(0.5379212498664856, 0, 0, 0.5379212498664856, 121.51969909667969, 121.1606216430664)"></path>
  <path text="C" text-anchor="middle" font-size="100" letter-spacing="0" side="left" offset="0.5" dx="0" dy="0" space="preserve" href="" font-family="Michroma" font-scale="contain" transform="matrix(3.123544216156006, 0, 0, 2.905194044113159, 256.4285888671875, 367.5641174316406)" x="0" y="0" fill="#219ebc" data-fl-textpath="" id="_psOU62T6V8RHGK4Oco9Ip" d="M 45.2919140625-51.56L 35.9119140625-51.56Q 35.9119140625-57.42  34.64191406250001-60.84Q 33.3719140625-64.26  30.441914062500004-66.02Q 27.511914062499997-67.77  22.751914062500006-68.26Q 17.9919140625-68.75  10.9619140625-68.75L 10.9619140625-68.75L-10.958085937500002-68.75Q-17.2080859375-68.75 -21.4880859375-68.38Q-25.7580859375-68.02 -28.5380859375-66.89Q-31.3280859375-65.77 -32.8380859375-63.67Q-34.3480859375-61.57 -35.0380859375-58.11Q-35.7180859375-54.64 -35.8180859375-49.58Q-35.9080859375-44.53 -35.9080859375-37.5L-35.9080859375-37.5Q-35.9080859375-30.47 -35.7880859375-25.42Q-35.6680859375-20.36 -34.9880859375-16.89Q-34.298085937500005-13.43 -32.808085937499996-11.33Q-31.3280859375-9.23 -28.5380859375-8.11Q-25.7580859375-6.98 -21.4880859375-6.62Q-17.2080859375-6.25 -10.958085937500002-6.25L-10.958085937500002-6.25L 10.9619140625-6.25Q 16.4319140625-6.25  20.3819140625-6.54Q 24.341914062499995-6.84  27.121914062499997-7.62Q 29.911914062500003-8.4  31.611914062500006-9.77Q 33.3219140625-11.13  34.28191406249999-13.21Q 35.231914062499996-15.28  35.5719140625-18.19Q 35.9119140625-21.09  35.9119140625-25L 35.9119140625-25L 45.2919140625-25Q 45.2919140625-20.31  44.701914062499995-16.53Q 44.111914062500006-12.74  42.6319140625-9.79Q 41.14191406250001-6.84  38.6519140625-4.69Q 36.1619140625-2.54  32.3519140625-1.15Q 28.5419140625 0.24  23.261914062499997 0.9Q 17.9919140625 1.56  10.9619140625 1.56L 10.9619140625 1.56L-10.958085937500002 1.56Q-19.5580859375 1.56 -25.4380859375 0.51Q-31.3280859375-0.54 -35.1280859375-2.66Q-38.9380859375-4.79 -41.018085937500004-8.01Q-43.0880859375-11.23 -44.0380859375-15.58Q-44.9980859375-19.92 -45.1380859375-25.39Q-45.2880859375-30.86 -45.2880859375-37.5L-45.2880859375-37.5Q-45.2880859375-44.14 -45.1380859375-49.61Q-44.9980859375-55.08 -44.0380859375-59.42Q-43.0880859375-63.77 -41.018085937500004-66.99Q-38.9380859375-70.21 -35.1280859375-72.34Q-31.3280859375-74.46 -25.4380859375-75.51Q-19.5580859375-76.56 -10.958085937500002-76.56L-10.958085937500002-76.56L 10.9619140625-76.56Q 17.9919140625-76.56  23.261914062499997-75.9Q 28.5419140625-75.24  32.3519140625-73.9Q 36.1619140625-72.56  38.6519140625-70.51Q 41.14191406250001-68.46  42.6319140625-65.67Q 44.111914062500006-62.89  44.701914062499995-59.38Q 45.2919140625-55.86  45.2919140625-51.56L 45.2919140625-51.56Z"></path>
  <path text="FG" text-anchor="middle" font-size="100" letter-spacing="0" side="left" offset="0.5" dx="0" dy="0" space="preserve" href="" font-family="Michroma" font-scale="contain" transform="matrix(1.0405323505401611, 0, 0, 1.9802645444869995, 260.28668212890625, 332.8792724609375)" x="0" y="0" fill="#8ecae6" data-fl-textpath="" id="_TQj8h9Y5KmMG0WK03nwvV" d="M-76.5869140625 0L-85.9569140625 0L-85.9569140625-75L-14.0869140625-75L-14.0869140625-67.19L-76.5869140625-67.19L-76.5869140625-42.19L-17.206914062500005-42.19L-17.206914062500005-34.38L-76.5869140625-34.38L-76.5869140625 0ZM 89.0880859375-51.56L 79.7080859375-51.56Q 79.7080859375-57.42  78.4380859375-60.84Q 77.1680859375-64.26  74.2480859375-66.02Q 71.3180859375-67.77  66.5280859375-68.26Q 61.748085937499994-68.75  54.7080859375-68.75L 54.7080859375-68.75L 29.6180859375-68.75Q 23.3680859375-68.75  19.0880859375-68.38Q 14.818085937500001-68.02  12.0380859375-66.89Q 9.2480859375-65.77  7.738085937499999-63.67Q 6.228085937500001-61.57  5.5380859375-58.11Q 4.8580859375-54.64  4.758085937500001-49.58Q 4.668085937500001-44.53  4.668085937500001-37.5L 4.668085937500001-37.5Q 4.668085937500001-30.47  4.7880859375-25.42Q 4.908085937499999-20.36  5.588085937500001-16.89Q 6.278085937499998-13.43  7.7680859375-11.33Q 9.2480859375-9.23  12.0380859375-8.11Q 14.818085937500001-6.98  19.0880859375-6.62Q 23.3680859375-6.25  29.6180859375-6.25L 29.6180859375-6.25L 54.7580859375-6.25Q 60.2280859375-6.25  64.1880859375-6.54Q 68.1380859375-6.84  70.9180859375-7.62Q 73.7080859375-8.4  75.4180859375-9.77Q 77.1280859375-11.13  78.0780859375-13.21Q 79.0280859375-15.28  79.3680859375-18.19Q 79.7080859375-21.09  79.7080859375-25L 79.7080859375-25L 79.7080859375-29.69L 42.1180859375-29.69L 42.1180859375-37.5L 89.0880859375-37.5L 89.0880859375-25Q 89.0880859375-20.31  88.4980859375-16.53Q 87.9180859375-12.74  86.4280859375-9.79Q 84.9380859375-6.84  82.4480859375-4.69Q 79.9580859375-2.54  76.1480859375-1.15Q 72.3380859375 0.24  67.0680859375 0.9Q 61.7880859375 1.56  54.7580859375 1.56L 54.7580859375 1.56L 29.6180859375 1.56Q 21.0180859375 1.56  15.138085937500001 0.51Q 9.2480859375-0.54  5.4480859375-2.66Q 1.6380859374999996-4.79 -0.4419140625000004-8.01Q-2.5119140625000007-11.23 -3.4619140625-15.58Q-4.4219140625-19.92 -4.5619140625-25.39Q-4.7119140625-30.86 -4.7119140625-37.5L-4.7119140625-37.5Q-4.7119140625-44.14 -4.5619140625-49.61Q-4.4219140625-55.08 -3.4619140625-59.42Q-2.5119140625000007-63.77 -0.4419140625000004-66.99Q 1.6380859374999996-70.21  5.4480859375-72.34Q 9.2480859375-74.46  15.138085937500001-75.51Q 21.0180859375-76.56  29.6180859375-76.56L 29.6180859375-76.56L 54.7080859375-76.56Q 61.748085937499994-76.56  67.0180859375-75.9Q 72.2880859375-75.24  76.0980859375-73.9Q 79.9080859375-72.56  82.4180859375-70.51Q 84.9380859375-68.46  86.4280859375-65.67Q 87.9180859375-62.89  88.4980859375-59.38Q 89.0880859375-55.86  89.0880859375-51.56L 89.0880859375-51.56Z"></path>
  <path text="C" text-anchor="start" font-size="100" letter-spacing="0" side="left" offset="0" dx="0" dy="0" space="preserve" href="" font-family="Michroma" font-scale="contain" transform="matrix(2.8689117431640625, 0, 0, 2.7779440879821777, 108.13627624511719, 362.792236328125)" x="0" y="0" fill="#023047" data-fl-textpath="" id="_jQvGYJ14DkV6khUhPQHqO" d="M 96.83-51.56L 87.45-51.56Q 87.45-57.42  86.18-60.84Q 84.91-64.26  81.98-66.02Q 79.05-67.77  74.29-68.26Q 69.53-68.75  62.5-68.75L 62.5-68.75L 40.58-68.75Q 34.33-68.75  30.05-68.38Q 25.78-68.02  23-66.89Q 20.21-65.77  18.7-63.67Q 17.19-61.57  16.5-58.11Q 15.82-54.64  15.72-49.58Q 15.63-44.53  15.63-37.5L 15.63-37.5Q 15.63-30.47  15.75-25.42Q 15.87-20.36  16.55-16.89Q 17.24-13.43  18.73-11.33Q 20.21-9.23  23-8.11Q 25.78-6.98  30.05-6.62Q 34.33-6.25  40.58-6.25L 40.58-6.25L 62.5-6.25Q 67.97-6.25  71.92-6.54Q 75.88-6.84  78.66-7.62Q 81.45-8.4  83.15-9.77Q 84.86-11.13  85.82-13.21Q 86.77-15.28  87.11-18.19Q 87.45-21.09  87.45-25L 87.45-25L 96.83-25Q 96.83-20.31  96.24-16.53Q 95.65-12.74  94.17-9.79Q 92.68-6.84  90.19-4.69Q 87.7-2.54  83.89-1.15Q 80.08 0.24  74.8 0.9Q 69.53 1.56  62.5 1.56L 62.5 1.56L 40.58 1.56Q 31.98 1.56  26.1 0.51Q 20.21-0.54  16.41-2.66Q 12.6-4.79  10.52-8.01Q 8.45-11.23  7.5-15.58Q 6.54-19.92  6.4-25.39Q 6.25-30.86  6.25-37.5L 6.25-37.5Q 6.25-44.14  6.4-49.61Q 6.54-55.08  7.5-59.42Q 8.45-63.77  10.52-66.99Q 12.6-70.21  16.41-72.34Q 20.21-74.46  26.1-75.51Q 31.98-76.56  40.58-76.56L 40.58-76.56L 62.5-76.56Q 69.53-76.56  74.8-75.9Q 80.08-75.24  83.89-73.9Q 87.7-72.56  90.19-70.51Q 92.68-68.46  94.17-65.67Q 95.65-62.89  96.24-59.38Q 96.83-55.86  96.83-51.56L 96.83-51.56Z"></path>
  <path text="FG" text-anchor="start" font-size="100" letter-spacing="0" side="left" offset="0" dx="0" dy="0" space="preserve" href="" font-family="Michroma" font-scale="contain" transform="matrix(0.9779068231582642, 0, 0, 1.9558135271072388, 167.15411376953125, 324.8329772949219)" x="0" y="0" fill="#023047" data-fl-textpath="" id="_MyEmxBxXat3cXlffEJXdU" d="M 18.75 0L 9.38 0L 9.38-75L 81.25-75L 81.25-67.19L 18.75-67.19L 18.75-42.19L 78.13-42.19L 78.13-34.38L 18.75-34.38L 18.75 0ZM 184.425-51.56L 175.04500000000002-51.56Q 175.04500000000002-57.42  173.775-60.84Q 172.505-64.26  169.58499999999998-66.02Q 166.655-67.77  161.865-68.26Q 157.08499999999998-68.75  150.04500000000002-68.75L 150.04500000000002-68.75L 124.955-68.75Q 118.705-68.75  114.425-68.38Q 110.155-68.02  107.375-66.89Q 104.58500000000001-65.77  103.075-63.67Q 101.565-61.57  100.875-58.11Q 100.195-54.64  100.095-49.58Q 100.005-44.53  100.005-37.5L 100.005-37.5Q 100.005-30.47  100.125-25.42Q 100.245-20.36  100.925-16.89Q 101.615-13.43  103.105-11.33Q 104.58500000000001-9.23  107.375-8.11Q 110.155-6.98  114.425-6.62Q 118.705-6.25  124.955-6.25L 124.955-6.25L 150.095-6.25Q 155.565-6.25  159.525-6.54Q 163.475-6.84  166.255-7.62Q 169.04500000000002-8.4  170.755-9.77Q 172.465-11.13  173.41500000000002-13.21Q 174.365-15.28  174.70499999999998-18.19Q 175.04500000000002-21.09  175.04500000000002-25L 175.04500000000002-25L 175.04500000000002-29.69L 137.45499999999998-29.69L 137.45499999999998-37.5L 184.425-37.5L 184.425-25Q 184.425-20.31  183.83499999999998-16.53Q 183.255-12.74  181.765-9.79Q 180.275-6.84  177.785-4.69Q 175.29500000000002-2.54  171.485-1.15Q 167.675 0.24  162.405 0.9Q 157.125 1.56  150.095 1.56L 150.095 1.56L 124.955 1.56Q 116.355 1.56  110.475 0.51Q 104.58500000000001-0.54  100.785-2.66Q 96.975-4.79  94.895-8.01Q 92.825-11.23  91.875-15.58Q 90.915-19.92  90.775-25.39Q 90.625-30.86  90.625-37.5L 90.625-37.5Q 90.625-44.14  90.775-49.61Q 90.915-55.08  91.875-59.42Q 92.825-63.77  94.895-66.99Q 96.975-70.21  100.785-72.34Q 104.58500000000001-74.46  110.475-75.51Q 116.355-76.56  124.955-76.56L 124.955-76.56L 150.04500000000002-76.56Q 157.08499999999998-76.56  162.35500000000002-75.9Q 167.625-75.24  171.435-73.9Q 175.245-72.56  177.755-70.51Q 180.275-68.46  181.765-65.67Q 183.255-62.89  183.83499999999998-59.38Q 184.425-55.86  184.425-51.56L 184.425-51.56Z"></path>
</svg>